<?xml version="1.0" standalone="no"?>
<!DOCTYPE svg PUBLIC "-//W3C//DTD SVG 20010904//EN"
 "http://www.w3.org/TR/2001/REC-SVG-20010904/DTD/svg10.dtd">
<svg version="1.0" xmlns="http://www.w3.org/2000/svg"
 width="700.000000pt" height="700.000000pt" viewBox="0 0 700.000000 700.000000"
 preserveAspectRatio="xMidYMid meet">
<metadata>
Created by potrace 1.11, written by Peter Selinger 2001-2013
</metadata>
<g transform="translate(0.000000,700.000000) scale(0.100000,-0.100000)"
fill="#000000" stroke="none">
<path d="M3156 6224 c-131 -20 -229 -49 -341 -103 -118 -57 -177 -98 -263
-183 -175 -173 -267 -404 -266 -668 1 -316 89 -544 284 -738 129 -129 285
-228 530 -337 401 -177 692 -349 839 -495 84 -83 125 -154 145 -254 49 -236
-64 -435 -321 -565 -65 -32 -200 -75 -281 -88 -60 -10 -351 -10 -417 0 -127
20 -286 67 -368 111 -43 22 -107 71 -107 82 0 6 19 11 43 11 100 2 224 80 267
167 48 99 47 244 -2 339 -43 85 -136 159 -221 175 -18 4 -66 6 -107 6 -263 -3
-412 -262 -315 -549 55 -161 202 -298 409 -380 77 -30 230 -71 304 -81 26 -3
56 -8 67 -10 42 -8 214 -17 320 -17 231 1 420 43 598 134 250 127 417 328 493
594 23 78 29 131 28 245 0 141 -8 218 -35 320 -85 333 -350 552 -1049 869
-339 154 -514 267 -634 411 -40 49 -84 146 -92 205 -67 461 257 724 826 673
193 -18 384 -96 482 -199 20 -21 16 -24 -32 -28 -128 -9 -233 -78 -286 -188
-25 -51 -28 -69 -29 -153 0 -82 4 -103 27 -152 55 -119 160 -186 301 -192 235
-11 389 150 374 393 -7 115 -11 132 -59 231 -56 117 -165 225 -293 291 -91 47
-187 84 -246 94 -18 3 -35 8 -39 10 -4 2 -20 6 -36 9 -16 2 -49 8 -74 11 -80
13 -333 12 -424 -1z"/>
<path d="M1477 2263 c-3 -5 -5 -19 -5 -33 l1 -25 1891 0 1891 0 3 33 3 32
-1890 0 c-1039 0 -1892 -3 -1894 -7z"/>
<path d="M4520 1823 c-44 -57 1 -133 70 -118 64 14 73 107 13 134 -38 17 -60
13 -83 -16z"/>
<path d="M1650 1811 c-108 -35 -163 -109 -163 -217 0 -72 28 -140 75 -179 17
-15 82 -52 145 -83 63 -31 132 -73 153 -93 65 -63 56 -135 -22 -186 -38 -24
-52 -27 -123 -27 -54 0 -93 6 -120 18 l-40 18 32 16 c41 20 61 68 42 103 -39
73 -135 63 -155 -16 -15 -62 40 -133 124 -158 63 -20 216 -16 258 6 88 45 134
114 134 199 0 126 -43 177 -224 267 -67 32 -135 74 -153 91 -91 90 -21 220
117 220 51 0 107 -15 129 -35 11 -11 8 -15 -15 -27 -40 -19 -57 -57 -43 -97
34 -98 174 -49 155 54 -8 41 -36 77 -82 106 -27 16 -55 22 -117 25 -45 2 -93
0 -107 -5z"/>
<path d="M2725 1801 c-11 -5 -46 -11 -78 -14 -32 -3 -61 -8 -65 -12 -11 -10
18 -22 42 -18 l23 5 -1 -355 c-1 -196 -5 -359 -9 -364 -5 -4 -13 -9 -18 -9 -5
-1 -13 -2 -19 -3 -5 0 -10 -5 -10 -11 0 -6 48 -10 125 -10 100 0 125 3 125 14
0 8 -6 14 -12 13 -48 -1 -45 -21 -46 356 -1 456 1 417 -19 416 -10 0 -27 -4
-38 -8z"/>
<path d="M3039 1801 c-14 -5 -52 -11 -84 -15 -81 -8 -84 -15 -15 -30 l25 -5 0
-350 c-1 -193 -4 -354 -9 -358 -8 -8 -13 -9 -42 -12 -8 0 -12 -6 -9 -11 8 -13
255 -13 255 -1 0 5 -13 12 -30 16 l-30 7 0 384 c0 424 5 394 -61 375z"/>
<path d="M4290 1603 c-25 -17 -33 -25 -48 -51 -6 -10 -19 -8 -56 9 -79 35
-191 25 -259 -23 -95 -67 -103 -209 -16 -282 30 -26 31 -28 13 -41 -11 -8 -22
-15 -26 -15 -13 0 -50 -61 -54 -90 -7 -41 20 -86 63 -108 l36 -19 -29 -6 c-61
-12 -104 -76 -90 -133 28 -109 318 -148 446 -59 103 71 109 234 11 284 -38 20
-75 25 -253 35 -79 5 -118 20 -118 46 1 38 58 71 102 59 84 -23 207 15 256 79
23 30 27 45 27 103 0 53 -4 73 -22 97 l-22 29 22 34 21 34 6 -35 c12 -80 109
-66 110 16 0 21 -41 54 -68 54 -15 0 -39 -8 -52 -17z m-160 -68 c21 -19 33
-64 35 -135 3 -105 -32 -170 -90 -170 -57 0 -86 55 -87 166 -1 109 35 166 100
159 12 -1 31 -10 42 -20z m8 -566 c104 -2 145 -24 150 -81 9 -101 -174 -160
-303 -98 -49 24 -72 69 -61 123 10 51 31 66 85 62 25 -2 83 -5 129 -6z"/>
<path d="M3465 1579 c-85 -11 -140 -47 -182 -118 -67 -112 -62 -277 10 -373
84 -112 258 -125 359 -26 63 61 82 116 83 229 0 87 -3 100 -31 154 -53 101
-136 148 -239 134z m59 -33 c49 -20 69 -87 71 -236 3 -187 -33 -290 -102 -290
-77 0 -114 89 -114 275 0 147 28 237 81 258 23 9 28 8 64 -7z"/>
<path d="M4947 1578 c-79 -16 -131 -58 -147 -117 -13 -49 2 -86 40 -100 34
-11 70 4 87 38 18 37 -4 85 -41 89 -53 6 3 60 69 66 86 8 115 -35 115 -170 l0
-71 -77 -7 c-127 -10 -202 -62 -218 -149 -10 -53 16 -117 57 -142 47 -28 127
-25 171 5 19 13 42 35 50 49 l15 26 7 -30 c4 -17 8 -36 11 -42 5 -20 174 -18
174 1 0 9 -7 13 -20 11 -11 -2 -23 1 -26 7 -4 6 -7 99 -8 207 -1 180 -3 200
-24 241 -12 25 -35 53 -51 63 -37 22 -135 35 -184 25z m112 -297 c10 -7 13
-26 9 -78 -8 -114 -54 -174 -116 -152 -23 8 -33 19 -38 42 -15 68 1 134 40
167 13 10 49 22 86 29 3 0 11 -3 19 -8z"/>
<path d="M4595 1568 c-37 -11 -69 -15 -117 -17 -27 -1 -38 -6 -38 -16 0 -11 7
-14 23 -11 13 2 28 1 33 -2 6 -4 10 -105 10 -244 0 -190 -2 -238 -13 -239 -7
-1 -18 -2 -25 -3 -6 0 -13 -7 -15 -13 -4 -10 25 -13 121 -13 101 0 126 3 126
14 0 8 -6 14 -12 13 -46 -1 -44 -13 -45 264 0 143 -4 264 -9 268 -5 5 -22 4
-39 -1z"/>
<path d="M2017 1564 c-11 -11 3 -24 27 -24 21 0 36 -29 141 -272 l118 -273
-13 -50 c-17 -67 -55 -140 -82 -159 -24 -17 -39 -13 -20 6 29 29 2 92 -45 101
-20 4 -33 -2 -54 -23 -28 -27 -30 -41 -14 -90 7 -21 60 -49 84 -45 9 2 24 4
33 4 24 1 72 53 96 104 16 35 145 448 156 502 1 6 7 26 13 45 6 19 19 61 28
92 15 48 21 57 43 60 14 2 27 8 29 14 3 8 -19 11 -68 10 -46 -1 -74 -5 -76
-13 -3 -7 8 -13 25 -15 l29 -3 -51 -172 c-28 -95 -53 -173 -56 -173 -4 0 -102
240 -135 332 -5 12 0 17 20 20 14 2 25 8 25 13 0 11 -242 20 -253 9z"/>
</g>
</svg>
