<?xml version="1.0" encoding="UTF-8" standalone="no"?>
<svg
   xmlns:dc="http://purl.org/dc/elements/1.1/"
   xmlns:cc="http://creativecommons.org/ns#"
   xmlns:rdf="http://www.w3.org/1999/02/22-rdf-syntax-ns#"
   xmlns:svg="http://www.w3.org/2000/svg"
   xmlns="http://www.w3.org/2000/svg"
   viewBox="0 0 1440 1440"
   height="1440"
   width="1440"
   xml:space="preserve"
   id="svg2"
   version="1.1"><metadata
     id="metadata8"><rdf:RDF><cc:Work
         rdf:about=""><dc:format>image/svg+xml</dc:format><dc:type
           rdf:resource="http://purl.org/dc/dcmitype/StillImage" /></cc:Work></rdf:RDF></metadata><defs
     id="defs6"><clipPath
       id="clipPath18"
       clipPathUnits="userSpaceOnUse"><path
         id="path16"
         d="M 0,1080 H 1080 V 0 H 0 Z" /></clipPath></defs><g
     transform="matrix(1.3333333,0,0,-1.3333333,0,1440)"
     id="g10"><g
       id="g12"><g
         clip-path="url(#clipPath18)"
         id="g14"><g
           transform="translate(267.2954,276.2373)"
           id="g20"><path
             id="path22"
             style="fill:#231f20;fill-opacity:1;fill-rule:nonzero;stroke:none"
             d="m 0,0 c -4.109,0 -7.719,-0.485 -10.828,-1.455 -3.111,-0.971 -5.722,-2.341 -7.832,-4.108 -2.112,-1.77 -3.695,-3.895 -4.751,-6.377 -1.056,-2.483 -1.583,-5.208 -1.583,-8.175 0,-2.112 0.285,-4.195 0.856,-6.248 0.569,-2.055 1.797,-4.153 3.68,-6.292 1.883,-2.14 4.608,-4.352 8.175,-6.634 3.565,-2.283 8.373,-4.737 14.423,-7.361 6.961,-3.197 12.853,-6.193 17.675,-8.988 4.822,-2.797 8.745,-5.764 11.77,-8.902 3.024,-3.139 5.207,-6.663 6.548,-10.571 1.34,-3.91 2.012,-8.575 2.012,-13.995 0,-4.109 -0.828,-8.217 -2.482,-12.326 -1.656,-4.109 -4.152,-7.79 -7.49,-11.042 -3.339,-3.253 -7.533,-5.893 -12.583,-7.918 -5.05,-2.025 -10.971,-3.039 -17.761,-3.039 -7.533,0 -13.867,0.7 -19.003,2.098 -5.136,1.397 -9.259,3.21 -12.368,5.436 -3.111,2.224 -5.35,4.75 -6.72,7.575 -1.369,2.824 -2.054,5.662 -2.054,8.516 0,1.883 0.285,3.638 0.856,5.264 0.569,1.627 1.412,3.053 2.525,4.28 1.113,1.227 2.482,2.197 4.108,2.91 1.627,0.713 3.467,1.071 5.521,1.071 1.884,0 3.596,-0.329 5.136,-0.985 1.541,-0.657 2.838,-1.541 3.895,-2.653 1.055,-1.113 1.883,-2.427 2.482,-3.937 0.6,-1.513 0.899,-3.155 0.899,-4.922 0,-4.053 -1.17,-7.105 -3.509,-9.16 -2.341,-2.054 -5.365,-3.081 -9.074,-3.081 v -0.346 c 0.399,-0.463 1.184,-1.097 2.354,-1.905 1.169,-0.808 2.795,-1.616 4.879,-2.423 2.083,-0.808 4.651,-1.516 7.704,-2.121 3.052,-0.606 6.662,-0.909 10.828,-0.909 3.424,0 6.833,0.456 10.229,1.371 3.394,0.915 6.42,2.23 9.073,3.945 2.654,1.714 4.807,3.801 6.463,6.259 1.654,2.458 2.482,5.23 2.482,8.317 0,2.63 -0.486,5.087 -1.455,7.374 -0.971,2.285 -2.797,4.614 -5.478,6.986 -2.684,2.373 -6.407,4.917 -11.171,7.632 -4.765,2.715 -10.971,5.788 -18.617,9.218 -5.649,2.396 -10.287,5.035 -13.91,7.917 -3.624,2.881 -6.477,5.934 -8.559,9.159 -2.084,3.224 -3.525,6.591 -4.323,10.101 -0.8,3.509 -1.198,7.118 -1.198,10.828 0,4.678 0.856,9.101 2.568,13.267 1.712,4.164 4.194,7.803 7.446,10.913 3.253,3.11 7.262,5.578 12.027,7.405 4.764,1.825 10.199,2.739 16.306,2.739 5.877,0 10.999,-0.685 15.365,-2.055 4.365,-1.369 7.974,-3.181 10.828,-5.435 2.852,-2.255 4.992,-4.879 6.419,-7.874 1.426,-2.996 2.14,-6.121 2.14,-9.373 0,-1.712 -0.286,-3.354 -0.856,-4.922 -0.571,-1.57 -1.399,-2.94 -2.482,-4.109 -1.085,-1.17 -2.426,-2.112 -4.023,-2.825 -1.598,-0.714 -3.424,-1.07 -5.478,-1.07 -1.883,0 -3.595,0.313 -5.136,0.942 -1.541,0.627 -2.867,1.483 -3.98,2.568 -1.113,1.083 -1.969,2.367 -2.568,3.851 -0.599,1.484 -0.899,3.111 -0.899,4.88 0,1.996 0.342,3.779 1.027,5.35 0.685,1.568 1.612,2.881 2.782,3.937 1.169,1.055 2.553,1.854 4.151,2.397 1.598,0.542 3.31,0.813 5.136,0.813 v 0.342 c -0.342,0.398 -1.027,1.041 -2.054,1.926 -1.027,0.885 -2.454,1.768 -4.28,2.653 -1.826,0.885 -4.08,1.655 -6.762,2.312 C 6.818,-0.329 3.651,0 0,0" /></g><g
           transform="translate(318.5679,126.1006)"
           id="g24"><path
             id="path26"
             style="fill:#231f20;fill-opacity:1;fill-rule:nonzero;stroke:none"
             d="m 0,0 c 0,3.368 1.013,6.192 3.039,8.475 2.024,2.282 4.579,3.423 7.661,3.423 3.308,0 5.805,-1.027 7.489,-3.082 1.683,-2.053 2.525,-4.592 2.525,-7.618 0,-1.14 -0.357,-2.51 -1.069,-4.108 -0.715,-1.597 -1.642,-2.795 -2.782,-3.595 v -0.343 c 1.996,0.058 3.88,0.757 5.649,2.097 1.768,1.342 3.366,3.268 4.794,5.778 1.425,2.512 2.51,4.622 3.252,6.334 0.741,1.712 1.597,3.852 2.568,6.42 l 3.852,13.011 -36.379,84.398 -8.474,0.942 v 3.51 h 40.487 v -3.51 L 23.368,111.19 45.623,55.381 62.4,111.19 l -9.416,0.942 v 3.51 h 23.283 v -3.51 L 67.365,111.19 38.947,14.979 C 36.948,9.159 34.894,4.31 32.784,0.428 c -2.112,-3.88 -4.238,-6.719 -6.377,-8.517 -2.14,-1.798 -4.124,-3.009 -5.949,-3.638 -1.827,-0.627 -3.852,-0.941 -6.078,-0.941 -4.279,0 -7.746,1.198 -10.4,3.595 C 1.327,-6.677 0,-3.651 0,0" /></g><g
           transform="translate(397.8301,271.1875)"
           id="g28"><path
             id="path30"
             style="fill:#231f20;fill-opacity:1;fill-rule:nonzero;stroke:none"
             d="M 0,0 V 3.509 L 17.89,5.393 29.959,8.56 31.5,6.077 V -111.02 l 8.816,-0.855 v -3.51 H 1.712 v 3.51 l 8.817,0.855 0,111.02 z" /></g><g
           transform="translate(446.7915,271.1875)"
           id="g32"><path
             id="path34"
             style="fill:#231f20;fill-opacity:1;fill-rule:nonzero;stroke:none"
             d="M 0,0 V 3.509 L 17.89,5.393 29.959,8.56 31.5,6.077 V -111.02 l 8.816,-0.855 v -3.51 H 1.712 v 3.51 l 8.817,0.855 0,111.02 z" /></g><g
           transform="translate(521.0044,199.2842)"
           id="g36"><path
             id="path38"
             style="fill:#231f20;fill-opacity:1;fill-rule:nonzero;stroke:none"
             d="m 0,0 c 0,-6.32 0.312,-11.973 0.941,-16.956 0.627,-4.983 1.597,-9.396 2.911,-13.239 1.312,-3.844 3.081,-6.791 5.307,-8.842 2.225,-2.051 4.849,-3.075 7.875,-3.075 11.469,0 17.205,13.696 17.205,41.088 0,6.89 -0.272,12.813 -0.814,17.766 -0.543,4.954 -1.455,9.325 -2.739,13.112 -1.283,3.789 -3.067,6.607 -5.35,8.458 -2.283,1.851 -5.049,2.776 -8.302,2.776 -3.026,0 -5.65,-1.025 -7.875,-3.076 C 6.933,35.962 5.164,33.058 3.852,29.3 2.538,25.542 1.568,21.242 0.941,16.401 0.312,11.56 0,6.094 0,0 m -21.913,-1.025 c 0,8.616 1.669,16.434 5.007,23.453 3.339,7.019 8.017,12.54 14.038,16.563 6.02,4.023 12.825,6.034 20.415,6.034 6.277,0 11.941,-1.298 16.992,-3.894 5.049,-2.598 9.101,-6.064 12.154,-10.401 3.052,-4.336 5.392,-9.172 7.019,-14.507 1.626,-5.337 2.44,-10.914 2.44,-16.735 0,-8.388 -1.599,-16.036 -4.794,-22.94 -3.196,-6.905 -7.775,-12.398 -13.738,-16.477 -5.964,-4.08 -12.711,-6.121 -20.244,-6.121 -6.677,0 -12.569,1.186 -17.676,3.553 -5.108,2.367 -9.216,5.649 -12.326,9.844 -3.111,4.194 -5.435,8.944 -6.976,14.252 -1.541,5.306 -2.311,11.097 -2.311,17.376" /></g><g
           transform="translate(614.8184,214.9502)"
           id="g40"><path
             id="path42"
             style="fill:#231f20;fill-opacity:1;fill-rule:nonzero;stroke:none"
             d="m 0,0 c 0,-8.247 1.184,-14.561 3.553,-18.939 2.367,-4.379 5.863,-6.569 10.485,-6.569 9.244,0 13.866,8.331 13.866,24.995 0,8.986 -1.056,15.555 -3.167,19.706 -2.111,4.152 -5.563,6.229 -10.357,6.229 -4.622,0 -8.174,-2.219 -10.656,-6.655 C 1.241,14.331 0,8.075 0,0 m -10.015,-78.406 c 0,-3.538 0.841,-6.577 2.525,-9.116 1.682,-2.54 3.966,-4.465 6.848,-5.779 2.881,-1.311 5.892,-2.268 9.031,-2.867 3.137,-0.6 6.533,-0.898 10.185,-0.898 8.787,0 15.75,1.712 20.886,5.135 5.136,3.424 7.704,7.875 7.704,13.353 0,3.539 -0.999,6.307 -2.996,8.303 -1.998,1.998 -4.865,3.325 -8.603,3.98 -3.738,0.657 -7.519,1.042 -11.341,1.155 l -13.696,0.257 c -5.306,0.115 -9.702,0.458 -13.181,1.028 l -0.086,-0.085 c -4.851,-3.481 -7.276,-8.304 -7.276,-14.466 m -15.236,-2.655 c 0,3.14 0.728,5.936 2.183,8.389 1.455,2.454 3.265,4.323 5.435,5.607 2.168,1.284 4.237,2.254 6.205,2.91 1.969,0.657 3.724,0.984 5.265,0.984 v 0.172 c -10.614,3.196 -15.921,8.93 -15.921,17.205 0,4.964 1.782,9.244 5.35,12.839 3.565,3.596 7.404,5.992 11.512,7.19 v 0.171 c -5.193,2.397 -9.131,5.806 -11.812,10.23 -2.683,4.421 -4.023,9.372 -4.023,14.85 0,8.502 3.41,15.607 10.229,21.314 6.818,5.706 15.222,8.559 25.208,8.559 9.473,0 17.347,-2.482 23.625,-7.446 4.622,8.731 10.186,13.096 16.691,13.096 3.309,0 5.892,-0.942 7.747,-2.824 1.854,-1.884 2.782,-4.281 2.782,-7.191 0,-2.568 -0.757,-4.723 -2.269,-6.463 -1.513,-1.741 -3.438,-2.61 -5.777,-2.61 -2.625,0 -4.751,0.727 -6.377,2.183 -1.626,1.455 -2.44,3.466 -2.44,6.034 0,1.768 0.313,3.168 0.942,4.194 v 0.343 c -1.485,-0.286 -2.953,-1.327 -4.408,-3.124 -1.456,-1.798 -2.697,-3.981 -3.724,-6.549 5.192,-5.535 7.789,-11.983 7.789,-19.345 0,-8.559 -3.281,-15.55 -9.843,-20.97 -6.563,-5.422 -14.866,-8.132 -24.909,-8.132 -5.593,0 -10.614,0.713 -15.064,2.139 -3.425,-1.198 -6.108,-2.696 -8.047,-4.493 -1.941,-1.798 -2.911,-3.668 -2.911,-5.607 0,-5.25 9.472,-7.875 28.418,-7.875 7.818,0 14.209,-0.414 19.174,-1.24 4.965,-0.829 9.044,-2.256 12.241,-4.281 3.195,-2.026 5.435,-4.665 6.719,-7.918 1.284,-3.252 1.926,-7.417 1.926,-12.497 0,-2.739 -0.442,-5.477 -1.327,-8.217 -0.885,-2.739 -2.368,-5.449 -4.45,-8.131 -2.084,-2.682 -4.665,-5.051 -7.747,-7.105 -3.081,-2.055 -7.006,-3.709 -11.77,-4.965 -4.766,-1.255 -10.087,-1.883 -15.964,-1.883 -3.539,0 -6.975,0.143 -10.314,0.428 -3.338,0.286 -6.92,0.886 -10.742,1.798 -3.825,0.913 -7.12,2.083 -9.887,3.509 -2.769,1.428 -5.079,3.411 -6.934,5.949 -1.854,2.54 -2.781,5.465 -2.781,8.773" /></g><g
           transform="translate(694.0811,273.8408)"
           id="g44"><path
             id="path46"
             style="fill:#231f20;fill-opacity:1;fill-rule:nonzero;stroke:none"
             d="m 0,0 c 0,1.597 0.3,3.081 0.898,4.451 0.6,1.369 1.414,2.568 2.44,3.595 1.027,1.027 2.225,1.825 3.596,2.396 1.369,0.571 2.824,0.857 4.365,0.857 1.541,0 2.996,-0.3 4.365,-0.9 1.37,-0.598 2.581,-1.412 3.638,-2.439 1.055,-1.026 1.884,-2.226 2.482,-3.595 0.6,-1.369 0.9,-2.824 0.9,-4.365 0,-1.541 -0.3,-2.996 -0.9,-4.365 -0.598,-1.37 -1.412,-2.583 -2.439,-3.639 -1.028,-1.056 -2.226,-1.883 -3.595,-2.481 -1.37,-0.6 -2.854,-0.9 -4.451,-0.9 -1.599,0 -3.081,0.3 -4.451,0.9 C 5.479,-9.887 4.28,-9.073 3.253,-8.046 2.226,-7.02 1.426,-5.82 0.856,-4.451 0.285,-3.082 0,-1.599 0,0 m -9.33,-38.946 v 3.508 l 17.89,1.884 12.069,3.167 1.541,-2.482 v -80.804 l 8.816,-0.855 v -3.51 H -7.618 v 3.51 l 8.816,0.855 v 74.727 z" /></g><g
           transform="translate(756.9092,176.1396)"
           id="g48"><path
             id="path50"
             style="fill:#231f20;fill-opacity:1;fill-rule:nonzero;stroke:none"
             d="m 0,0 c 0,-4.555 0.856,-8.242 2.568,-11.061 1.712,-2.817 4.223,-4.226 7.533,-4.226 3.879,0 7.404,2.42 10.571,7.259 3.167,4.839 4.751,10.76 4.751,17.763 v 11.786 c -2.283,0.284 -4.139,0.427 -5.565,0.427 -2.967,0 -5.606,-0.398 -7.917,-1.196 C 9.63,19.955 7.79,18.873 6.42,17.506 5.051,16.14 3.908,14.703 2.996,13.194 2.083,11.686 1.426,10.02 1.027,8.197 0.628,6.376 0.356,4.867 0.215,3.672 0.071,2.476 0,1.252 0,0 m -20.714,-1.763 c 0,2.796 0.442,5.492 1.326,8.089 0.885,2.597 2.326,5.094 4.324,7.49 1.997,2.397 4.451,4.479 7.361,6.248 2.91,1.769 6.518,3.181 10.828,4.238 4.308,1.055 9.086,1.584 14.337,1.584 2.796,0 5.449,-0.115 7.961,-0.343 v 11.838 c 0,3.774 -0.072,6.834 -0.214,9.179 -0.144,2.344 -0.501,4.761 -1.07,7.249 -0.572,2.487 -1.384,4.404 -2.44,5.748 -1.056,1.344 -2.54,2.46 -4.451,3.346 -1.912,0.886 -4.237,1.329 -6.976,1.329 -8.333,0 -14.41,-3.29 -18.232,-9.87 v -0.343 c 0.97,0.17 1.854,0.257 2.653,0.257 2.967,0 5.307,-0.916 7.019,-2.747 1.712,-1.832 2.568,-4.464 2.568,-7.896 0,-2.976 -1.027,-5.48 -3.081,-7.511 -2.054,-2.031 -4.623,-3.047 -7.704,-3.047 -3.368,0 -6.021,1.141 -7.961,3.424 -1.94,2.282 -2.91,4.965 -2.91,8.047 0,6.732 3.095,12.353 9.287,16.862 6.192,4.507 13.311,6.762 21.357,6.762 5.706,0 10.571,-0.599 14.594,-1.797 4.023,-1.199 7.233,-2.782 9.63,-4.751 2.397,-1.969 4.265,-4.651 5.607,-8.046 1.339,-3.396 2.225,-6.862 2.653,-10.4 0.428,-3.539 0.642,-7.875 0.642,-13.011 v -46.137 l 8.816,-0.855 v -3.51 H 27.99 l -2.396,13.525 h -0.171 c -2.797,-5.422 -6.178,-9.459 -10.144,-12.113 -3.966,-2.653 -8.773,-3.98 -14.423,-3.98 -6.962,0 -12.297,2.084 -16.006,6.249 -3.71,4.165 -5.564,9.13 -5.564,14.893" /></g><g
           transform="translate(682.3047,617.2295)"
           id="g52"><path
             id="path54"
             style="fill:#231f20;fill-opacity:1;fill-rule:nonzero;stroke:none"
             d="m 0,0 c -5.801,16.896 -15.236,32.133 -28.311,45.704 -13.08,13.565 -30.04,26.397 -50.884,38.487 -20.852,12.086 -46.323,25.038 -76.421,38.858 -26.154,11.345 -46.941,21.955 -62.357,31.826 -15.421,9.865 -27.2,19.429 -35.341,28.681 -8.143,9.252 -13.45,18.319 -15.913,27.2 -2.469,8.882 -3.701,17.886 -3.701,27.015 0,12.826 2.278,24.61 6.846,35.342 4.562,10.732 11.409,19.921 20.54,27.571 9.123,7.644 20.411,13.565 33.861,17.763 13.444,4.192 29.05,6.291 46.814,6.291 15.786,0 29.478,-1.422 41.077,-4.255 11.594,-2.839 21.337,-6.17 29.236,-9.993 7.893,-3.827 14.062,-7.65 18.503,-11.472 4.443,-3.828 7.403,-6.603 8.882,-8.327 v -1.48 c -7.898,0 -15.3,-1.174 -22.204,-3.515 -6.909,-2.348 -12.895,-5.8 -17.949,-10.363 -5.058,-4.567 -9.067,-10.24 -12.027,-17.022 -2.96,-6.789 -4.441,-14.498 -4.441,-23.13 0,-7.651 1.296,-14.682 3.887,-21.095 2.59,-6.418 6.291,-11.968 11.101,-16.652 4.811,-4.69 10.547,-8.391 17.208,-11.103 6.662,-2.717 14.064,-4.07 22.205,-4.07 8.881,0 16.774,1.537 23.685,4.626 6.904,3.081 12.703,7.152 17.393,12.212 4.684,5.054 8.264,10.975 10.732,17.763 2.464,6.783 3.701,13.878 3.701,21.279 0,14.063 -3.088,27.571 -9.252,40.524 -6.17,12.952 -15.422,24.297 -27.756,34.046 -12.34,9.743 -27.94,17.579 -46.813,23.499 -18.873,5.922 -41.021,8.882 -66.428,8.882 -26.402,0 -49.902,-3.949 -70.498,-11.842 -20.604,-7.898 -37.933,-18.567 -51.996,-32.011 -14.062,-13.45 -24.795,-29.178 -32.196,-47.185 -7.402,-18.012 -11.102,-37.134 -11.102,-57.36 0,-16.041 1.723,-31.642 5.18,-46.815 3.452,-15.173 9.68,-29.733 18.69,-43.669 9.003,-13.941 21.337,-27.142 37.007,-39.597 15.664,-12.461 35.712,-23.869 60.136,-34.232 33.058,-14.825 59.887,-28.113 80.49,-39.852 20.598,-11.738 36.695,-22.737 48.295,-32.994 11.594,-10.258 19.486,-20.326 23.684,-30.208 4.193,-9.887 6.291,-20.51 6.291,-31.878 0,-13.345 -3.579,-25.332 -10.732,-35.96 -7.158,-10.63 -16.467,-19.649 -27.939,-27.062 -11.473,-7.412 -24.552,-13.097 -39.228,-17.053 -14.682,-3.955 -29.421,-5.926 -44.224,-5.926 -18.012,0 -33.618,1.307 -46.814,3.927 -13.201,2.618 -24.304,5.677 -33.307,9.17 -9.008,3.492 -16.04,6.985 -21.093,10.476 -5.06,3.495 -8.454,6.236 -10.177,8.235 v 1.498 c 16.035,0 29.108,4.44 39.227,13.323 10.114,8.882 15.174,22.077 15.174,39.598 0,7.644 -1.296,14.739 -3.887,21.279 -2.59,6.534 -6.169,12.213 -10.732,17.024 -4.568,4.81 -10.177,8.633 -16.838,11.472 -6.661,2.833 -14.063,4.255 -22.204,4.255 -8.882,0 -16.839,-1.544 -23.87,-4.625 -7.031,-3.088 -12.953,-7.28 -17.763,-12.582 -4.811,-5.309 -8.454,-11.473 -10.917,-18.505 -2.469,-7.031 -3.701,-14.617 -3.701,-22.759 0,-12.339 2.961,-24.61 8.881,-36.822 5.922,-12.212 15.602,-23.13 29.051,-32.751 13.444,-9.622 31.271,-17.458 53.476,-23.5 22.204,-6.043 49.59,-9.066 82.156,-9.066 29.357,0 54.955,4.382 76.79,13.137 21.834,8.754 39.967,20.168 54.4,34.232 14.432,14.061 25.222,29.975 32.381,47.739 7.153,17.763 10.731,35.526 10.731,53.29 C 8.695,-37.071 5.794,-16.902 0,0" /></g><g
           transform="translate(586.8594,853.4595)"
           id="g56"><path
             id="path58"
             style="fill:#ffffff;fill-opacity:1;fill-rule:nonzero;stroke:none"
             d="m 0,0 c 0,-13.851 11.229,-25.08 25.08,-25.08 13.852,0 25.08,11.229 25.08,25.08 0,13.852 -11.228,25.081 -25.08,25.081 C 11.229,25.081 0,13.852 0,0" /></g><g
           transform="translate(373.5845,515.3994)"
           id="g60"><path
             id="path62"
             style="fill:#ffffff;fill-opacity:1;fill-rule:nonzero;stroke:none"
             d="m 0,0 c 0,-13.77 11.163,-24.933 24.933,-24.933 13.77,0 24.933,11.163 24.933,24.933 0,13.771 -11.163,24.933 -24.933,24.933 C 11.163,24.933 0,13.771 0,0" /></g><path
           id="path64"
           style="fill:#231f20;fill-opacity:1;fill-rule:nonzero;stroke:none"
           d="M 811.328,340.102 H 227.296 v 10 h 584.032 z" /><g
           transform="translate(377.9888,821.4951)"
           id="g66"><path
             id="path68"
             style="fill:#ffffff;fill-opacity:1;fill-rule:nonzero;stroke:none"
             d="m 0,0 c 3.869,-12.838 11.284,-25.542 22.059,-37.785 10.178,-11.566 23.895,-22.798 41.924,-34.33 16.921,-10.835 38.658,-21.969 66.449,-34.036 28.931,-13.293 53.659,-25.863 73.493,-37.359 18.242,-10.581 33.078,-21.741 44.089,-33.16 9.975,-10.354 16.939,-21.546 21.283,-34.205 4.655,-13.577 7.015,-30.539 7.015,-50.415 0,-3.813 -0.222,-7.654 -0.664,-11.511 -1.273,4.607 -2.842,9.116 -4.707,13.514 -6.089,14.332 -16.46,27.856 -31.712,41.352 -13.333,11.789 -30.833,23.8 -53.504,36.72 -21.407,12.196 -49.386,26.061 -83.161,41.208 l -0.289,0.13 -0.291,0.124 c -21.732,9.219 -39.535,19.292 -52.927,29.944 -12.934,10.281 -23.105,21.087 -30.237,32.132 -6.98,10.796 -11.851,22.126 -14.482,33.687 -2.921,12.821 -4.402,26.245 -4.402,39.901 0,1.368 0.022,2.732 0.064,4.089" /></g></g></g></g></svg>
